<svg width="653" height="129" viewBox="0 0 653 129" fill="none" xmlns="http://www.w3.org/2000/svg">
<path d="M19.0913 5.62162L37.9319 27.4214H107.991C107.991 27.4214 118.194 27.4214 120.161 34.8795C120.161 34.8795 127.577 13.4221 99.0354 6.97876C94.9301 6.04955 90.727 5.62162 86.524 5.62162H19.0913Z" fill="url(#paint0_linear_626_12)"/>
<path d="M141.946 124.634L105.242 78.8824C105.242 78.8824 143.901 44.5139 125.06 20.1589C125.06 20.1589 116.52 3.95884 80.0238 5.71945C80.0238 5.71945 114.369 7.28443 108.48 35.3685C108.48 35.3685 107.112 47.9373 79.0464 76.2171L117.9 124.915L141.946 124.622V124.634Z" fill="white"/>
<path d="M65.8019 89.874L78.5576 104.216C78.5576 104.216 49.7104 134.855 18.114 123.46C18.114 123.46 9.02358 120.293 4.80828 108.654C3.58645 105.267 3 101.697 3 98.0902V84.5799C3 84.5799 10.3554 127.886 65.8019 89.8862V89.874Z" fill="white"/>
<path d="M3 17.4079V84.5677C3 84.5677 7.11752 106.563 28.3162 105.389C28.3162 105.389 24.1009 102.541 24.4919 93.5052V41.6651L3 17.4079Z" fill="url(#paint1_linear_626_12)"/>
<path d="M174.146 63.8447V97.2842H165.352V64.8504C165.352 45.8679 178.041 33.1709 197.639 33.1709V41.3422C183.568 41.3422 174.146 50.1421 174.146 63.8447Z" fill="white"/>
<path d="M266.982 66.2332H210.951C211.077 80.5644 220.75 90.37 235.198 90.37C247.258 90.37 255.549 83.4558 258.188 72.7703H266.982C264.218 88.4843 252.534 98.5413 235.198 98.5413C215.348 98.5413 202.157 85.4672 202.157 65.8561C202.157 46.245 215.348 33.1709 235.198 33.1709C254.67 33.1709 267.107 44.8622 266.982 63.2161V66.2332ZM211.956 58.062H257.936C255.298 47.3764 247.258 41.3422 235.198 41.3422C223.389 41.3422 214.846 47.8793 211.956 58.062Z" fill="white"/>
<path d="M278.467 97.2842V34.4281H287.261V88.4843C293.04 88.4843 326.08 91.7528 326.08 50.5192V34.4281H334.874V49.3878C334.874 79.1816 318.668 97.2842 292.16 97.2842H278.467Z" fill="white"/>
<path d="M344.716 65.8561C344.716 46.245 357.907 33.1709 377.756 33.1709C397.605 33.1709 410.796 46.245 410.796 65.8561C410.796 85.4672 397.605 98.5413 377.756 98.5413C357.907 98.5413 344.716 85.4672 344.716 65.8561ZM353.51 65.8561C353.51 80.4387 363.183 90.37 377.756 90.37C392.329 90.37 402.002 80.4387 402.002 65.8561C402.002 51.2735 392.329 41.3422 377.756 41.3422C363.183 41.3422 353.51 51.2735 353.51 65.8561Z" fill="white"/>
<path d="M422.129 97.2842V3H430.923V97.2842H422.129Z" fill="white"/>
<path d="M451.166 67.8675C451.166 81.193 460.588 90.37 474.282 90.37C488.101 90.37 497.523 81.3187 497.523 67.8675V34.4281H506.317V66.8618C506.317 85.8443 493.628 98.5413 474.659 98.5413C455.061 98.5413 442.372 85.8443 442.372 66.8618V34.4281H451.166V67.8675Z" fill="white"/>
<path d="M551.871 97.2842C527.499 97.2842 517.7 88.61 517.7 66.8618V21.354H526.494V35.1823H551.871V43.1022H526.494V67.8675C526.494 83.833 532.901 89.1129 551.871 89.1129V97.2842Z" fill="white"/>
<path d="M562.602 13.6855C562.602 10.2913 564.863 8.02849 568.255 8.02849C571.647 8.02849 573.909 10.2913 573.909 13.6855C573.909 17.0798 571.647 19.3426 568.255 19.3426C564.863 19.3426 562.602 17.0798 562.602 13.6855ZM563.858 97.2842V34.4281H572.652V97.2842H563.858Z" fill="white"/>
<path d="M593.97 65.8561C593.97 80.4387 603.643 90.37 618.216 90.37C630.276 90.37 638.568 83.4558 641.206 72.7703H650C647.236 88.4843 635.553 98.5413 618.216 98.5413C598.367 98.5413 585.176 85.4672 585.176 65.8561C585.176 46.245 598.367 33.1709 618.216 33.1709C635.553 33.1709 647.236 43.2279 650 58.9419H641.206C638.568 48.2564 630.276 41.3422 618.216 41.3422C603.643 41.3422 593.97 51.2735 593.97 65.8561Z" fill="white"/>
<path d="M174.146 63.8447V97.2842H165.352V64.8504C165.352 45.8679 178.041 33.1709 197.639 33.1709V41.3422C183.568 41.3422 174.146 50.1421 174.146 63.8447Z" fill="white"/>
<path d="M266.982 66.2332H210.951C211.077 80.5644 220.75 90.37 235.198 90.37C247.258 90.37 255.549 83.4558 258.188 72.7703H266.982C264.218 88.4843 252.534 98.5413 235.198 98.5413C215.348 98.5413 202.157 85.4672 202.157 65.8561C202.157 46.245 215.348 33.1709 235.198 33.1709C254.67 33.1709 267.107 44.8622 266.982 63.2161V66.2332ZM211.956 58.062H257.936C255.298 47.3764 247.258 41.3422 235.198 41.3422C223.389 41.3422 214.846 47.8793 211.956 58.062Z" fill="white"/>
<path d="M278.467 97.2842V34.4281H287.261V88.4843C293.04 88.4843 326.08 91.7528 326.08 50.5192V34.4281H334.874V49.3878C334.874 79.1816 318.668 97.2842 292.16 97.2842H278.467Z" fill="white"/>
<path d="M344.716 65.8561C344.716 46.245 357.907 33.1709 377.756 33.1709C397.605 33.1709 410.796 46.245 410.796 65.8561C410.796 85.4672 397.605 98.5413 377.756 98.5413C357.907 98.5413 344.716 85.4672 344.716 65.8561ZM353.51 65.8561C353.51 80.4387 363.183 90.37 377.756 90.37C392.329 90.37 402.002 80.4387 402.002 65.8561C402.002 51.2735 392.329 41.3422 377.756 41.3422C363.183 41.3422 353.51 51.2735 353.51 65.8561Z" fill="white"/>
<path d="M422.129 97.2842V3H430.923V97.2842H422.129Z" fill="white"/>
<path d="M451.166 67.8675C451.166 81.193 460.588 90.37 474.282 90.37C488.101 90.37 497.523 81.3187 497.523 67.8675V34.4281H506.317V66.8618C506.317 85.8443 493.628 98.5413 474.659 98.5413C455.061 98.5413 442.372 85.8443 442.372 66.8618V34.4281H451.166V67.8675Z" fill="white"/>
<path d="M551.871 97.2842C527.499 97.2842 517.7 88.61 517.7 66.8618V21.354H526.494V35.1823H551.871V43.1022H526.494V67.8675C526.494 83.833 532.901 89.1129 551.871 89.1129V97.2842Z" fill="white"/>
<path d="M562.602 13.6855C562.602 10.2913 564.863 8.02849 568.255 8.02849C571.647 8.02849 573.909 10.2913 573.909 13.6855C573.909 17.0798 571.647 19.3426 568.255 19.3426C564.863 19.3426 562.602 17.0798 562.602 13.6855ZM563.858 97.2842V34.4281H572.652V97.2842H563.858Z" fill="white"/>
<path d="M593.97 65.8561C593.97 80.4387 603.643 90.37 618.216 90.37C630.276 90.37 638.568 83.4558 641.206 72.7703H650C647.236 88.4843 635.553 98.5413 618.216 98.5413C598.367 98.5413 585.176 85.4672 585.176 65.8561C585.176 46.245 598.367 33.1709 618.216 33.1709C635.553 33.1709 647.236 43.2279 650 58.9419H641.206C638.568 48.2564 630.276 41.3422 618.216 41.3422C603.643 41.3422 593.97 51.2735 593.97 65.8561Z" fill="white"/>
<defs>
<linearGradient id="paint0_linear_626_12" x1="650.001" y1="64.5257" x2="3" y2="64.5257" gradientUnits="userSpaceOnUse">
<stop stop-color="#333333"/>
<stop offset="0.02" stop-color="#414141"/>
<stop offset="0.11" stop-color="#6D6D6D"/>
<stop offset="0.2" stop-color="#949494"/>
<stop offset="0.29" stop-color="#B5B5B5"/>
<stop offset="0.39" stop-color="#D0D0D0"/>
<stop offset="0.5" stop-color="#E5E5E5"/>
<stop offset="0.62" stop-color="#F3F3F3"/>
<stop offset="0.77" stop-color="#FCFCFC"/>
<stop offset="1" stop-color="white"/>
</linearGradient>
<linearGradient id="paint1_linear_626_12" x1="326.5" y1="125.988" x2="326.5" y2="3" gradientUnits="userSpaceOnUse">
<stop stop-color="#333333"/>
<stop offset="0.02" stop-color="#414141"/>
<stop offset="0.11" stop-color="#6D6D6D"/>
<stop offset="0.2" stop-color="#949494"/>
<stop offset="0.29" stop-color="#B5B5B5"/>
<stop offset="0.39" stop-color="#D0D0D0"/>
<stop offset="0.5" stop-color="#E5E5E5"/>
<stop offset="0.62" stop-color="#F3F3F3"/>
<stop offset="0.77" stop-color="#FCFCFC"/>
<stop offset="1" stop-color="white"/>
</linearGradient>
</defs>
</svg>
